# Blender v2.79 (sub 0) OBJ File: 'house1.blend'
# www.blender.org
v 0.000000 0.064093 -2.329855
v 0.000000 2.770479 -2.329855
v 0.454532 0.064093 -2.285087
v 0.454532 2.770479 -2.285087
v 0.891597 0.064093 -2.152505
v 0.891597 2.770479 -2.152505
v 1.294398 0.064093 -1.937204
v 1.294398 2.770479 -1.937204
v 1.647456 0.064093 -1.647456
v 1.647456 2.770479 -1.647456
v 1.937204 0.064093 -1.294398
v 1.937204 2.770479 -1.294398
v 2.152505 0.064093 -0.891597
v 2.152505 2.770479 -0.891597
v 2.285087 0.064093 -0.454532
v 2.285087 2.770479 -0.454532
v 2.329855 0.064093 -0.000000
v 2.329855 2.770479 -0.000000
v 2.285088 0.064093 0.454532
v 2.285088 2.770479 0.454532
v 2.152505 0.064093 0.891597
v 2.152505 2.770479 0.891597
v 1.937204 0.064093 1.294398
v 1.937204 2.770479 1.294398
v 1.647456 0.064093 1.647456
v 1.647456 2.770479 1.647456
v 1.294398 0.064093 1.937204
v 1.294398 2.770479 1.937204
v 0.891597 0.064093 2.152506
v 0.891597 2.770479 2.152506
v 0.454532 0.064093 2.285088
v 0.454532 2.770479 2.285088
v -0.000001 0.064093 2.329855
v -0.000001 2.770479 2.329855
v -0.454533 0.064093 2.285087
v -0.454533 2.770479 2.285087
v -0.891598 0.064093 2.152505
v -0.891598 2.770479 2.152505
v -1.294399 0.064093 1.937203
v -1.294399 2.770479 1.937203
v -1.647457 0.064093 1.647455
v -1.647457 2.770479 1.647455
v -1.937204 0.064093 1.294397
v -1.937204 2.770479 1.294397
v -2.152506 0.064093 0.891595
v -2.152506 2.770479 0.891595
v -2.285088 0.064093 0.454530
v -2.285088 2.770479 0.454530
v -2.329855 0.064093 -0.000002
v -2.329855 2.770479 -0.000002
v -2.285087 0.064093 -0.454535
v -2.285087 2.770479 -0.454535
v -2.152504 0.064093 -0.891599
v -2.152504 2.770479 -0.891599
v -1.937202 0.064093 -1.294400
v -1.937202 2.770479 -1.294400
v -1.647454 0.064093 -1.647458
v -1.647454 2.770479 -1.647458
v -1.294395 0.064093 -1.937205
v -1.294395 2.770479 -1.937205
v -0.891594 0.064093 -2.152507
v -0.891594 2.770479 -2.152507
v -0.454529 0.064093 -2.285088
v -0.454529 2.770479 -2.285088
v 0.000000 4.551280 -0.345851
v 0.067472 4.551280 -0.339206
v 0.132352 4.551280 -0.319525
v 0.192145 4.551280 -0.287565
v 0.244554 4.551280 -0.244554
v 0.287565 4.551280 -0.192145
v 0.319525 4.551280 -0.132352
v 0.339205 4.551280 -0.067473
v 0.345851 4.551280 -0.000001
v 0.339205 4.551280 0.067471
v 0.319525 4.551280 0.132351
v 0.287565 4.551280 0.192144
v 0.244554 4.551280 0.244553
v 0.192145 4.551280 0.287564
v 0.132351 4.551280 0.319524
v 0.067472 4.551280 0.339205
v 0.000000 4.551280 0.345850
v -0.067472 4.551280 0.339205
v -0.132351 4.551280 0.319524
v -0.192144 4.551280 0.287564
v -0.244553 4.551280 0.244553
v -0.287564 4.551280 0.192144
v -0.319524 4.551280 0.132351
v -0.339205 4.551280 0.067471
v -0.345850 4.551280 -0.000001
v -0.339205 4.551280 -0.067473
v -0.319524 4.551280 -0.132352
v -0.287564 4.551280 -0.192145
v -0.244553 4.551280 -0.244554
v -0.192144 4.551280 -0.287565
v -0.132351 4.551280 -0.319525
v -0.067471 4.551280 -0.339206
v -0.000000 2.035332 -2.887648
v 0.563352 2.035332 -2.832163
v 1.105055 2.035332 -2.667839
v 1.604292 2.035332 -2.400992
v 2.041876 2.035332 -2.041876
v 2.400992 2.035332 -1.604291
v 2.667840 2.035332 -1.105055
v 2.832163 2.035332 -0.563352
v 2.887649 2.035332 -0.000000
v 2.832163 2.035332 0.563352
v 2.667840 2.035332 1.105055
v 2.400992 2.035332 1.604292
v 2.041876 2.035332 2.041876
v 1.604291 2.035332 2.400993
v 1.105055 2.035332 2.667840
v 0.563352 2.035332 2.832164
v -0.000001 2.035332 2.887649
v -0.563354 2.035332 2.832163
v -1.105057 2.035332 2.667839
v -1.604293 2.035332 2.400991
v -2.041877 2.035332 2.041875
v -2.400993 2.035332 1.604290
v -2.667840 2.035332 1.105053
v -2.832164 2.035332 0.563350
v -2.887649 2.035332 -0.000003
v -2.832163 2.035332 -0.563355
v -2.667838 2.035332 -1.105058
v -2.400990 2.035332 -1.604294
v -2.041873 2.035332 -2.041878
v -1.604288 2.035332 -2.400994
v -1.105052 2.035332 -2.667841
v -0.563348 2.035332 -2.832164
v -2.329855 1.894319 -0.000002
v -2.285087 1.936483 -0.454535
v -2.152504 1.961696 -0.891599
v -1.937202 1.942030 -1.294400
v -1.647454 1.868798 -1.647458
v -1.294395 1.017512 -1.937205
v -2.285088 1.127988 0.454530
vt 2.280791 0.996520
vt 2.182978 -0.001400
vt 2.280792 -0.001400
vt 2.179495 0.996519
vt 2.081682 -0.001400
vt 2.179495 -0.001400
vt 2.074329 0.996519
vt 1.976515 -0.001400
vt 2.074329 -0.001400
vt 1.975523 0.998854
vt 1.877709 0.000935
vt 1.975523 0.000935
vt 1.874049 1.000792
vt 1.776238 0.002872
vt 1.874052 0.002873
vt 1.775343 0.998855
vt 1.677530 0.000935
vt 1.775344 0.000935
vt 1.676088 0.998488
vt 1.578279 0.000568
vt 1.676092 0.000568
vt 1.573751 0.996856
vt 1.475958 -0.001065
vt 1.573772 -0.001064
vt 1.477923 0.998855
vt 1.380110 0.000935
vt 1.477924 0.000935
vt 1.281625 0.002537
vt 1.379438 1.000456
vt 1.281624 1.000456
vt 1.282641 1.000456
vt 1.184828 0.002537
vt 1.282641 0.002537
vt 1.084420 0.000904
vt 1.182231 0.998823
vt 1.084418 0.998823
vt 1.083228 1.000484
vt 0.985417 0.002564
vt 1.083231 0.002564
vt 0.984450 0.999839
vt 0.886637 0.001919
vt 0.984451 0.001920
vt 0.788550 0.005187
vt 0.885926 0.998830
vt 0.788532 0.998828
vt 0.690395 0.003048
vt 0.788188 1.000969
vt 0.690374 1.000967
vt 0.691033 0.998489
vt 0.593240 0.000567
vt 0.691054 0.000569
vt 0.590555 1.000969
vt 0.492760 0.003048
vt 0.590573 0.003049
vt 0.490924 0.998488
vt 0.393117 0.000568
vt 0.490930 0.000568
vt 0.390547 0.998855
vt 0.292736 0.000935
vt 0.390550 0.000935
vt 0.291674 0.998855
vt 0.193861 0.000935
vt 0.291674 0.000935
vt 0.195799 0.998855
vt 0.097986 0.000935
vt 0.195799 0.000935
vt 0.092414 1.000637
vt -0.005434 1.000637
vt -0.005434 0.394787
vt 2.583081 0.354089
vt 2.485267 1.000458
vt 2.485267 0.002537
vt 2.998010 0.206809
vt 2.941844 0.987816
vt 2.900196 0.206809
vt 2.479739 0.998855
vt 2.381926 0.000935
vt 2.479740 0.000935
vt 2.382565 0.996521
vt 2.284753 -0.001400
vt 2.382565 -0.001400
vt 0.973544 0.353429
vt 0.640993 0.975590
vt 0.018831 0.643037
vt 2.098372 0.212651
vt 2.042207 0.993640
vt 2.000560 0.212651
vt 1.206285 0.216952
vt 1.150119 0.997940
vt 1.108473 0.216952
vt 0.300838 0.214999
vt 0.244673 0.995988
vt 0.203026 0.214999
vt 2.497416 0.211767
vt 2.441248 0.992782
vt 2.399601 0.211767
vt 1.597634 0.214999
vt 1.541468 0.995988
vt 1.499822 0.214999
vt 0.606229 0.215466
vt 0.662395 0.996473
vt 0.647876 0.996473
vt 2.899225 0.207895
vt 2.843059 0.988900
vt 2.801411 0.207895
vt 1.997144 0.212645
vt 1.940977 0.993652
vt 1.899330 0.212645
vt 1.008631 0.216951
vt 1.064800 0.997941
vt 1.050277 0.997941
vt 0.199788 0.214250
vt 0.143621 0.995257
vt 0.101974 0.214250
vt 2.401620 0.213734
vt 2.345452 0.994757
vt 2.303804 0.213734
vt 1.402301 0.216951
vt 1.458471 0.997941
vt 1.443947 0.997941
vt 0.503105 0.214993
vt 0.559270 0.996000
vt 0.544751 0.996000
vt 2.800442 0.206806
vt 2.744275 0.987821
vt 2.702627 0.206806
vt 1.895396 0.212642
vt 1.839228 0.993657
vt 1.797581 0.212642
vt 0.908788 0.216952
vt 0.964957 0.997940
vt 0.950434 0.997940
vt 0.101003 0.216219
vt 0.044836 0.997226
vt 0.003189 0.216219
vt 2.206992 0.212855
vt 2.263158 0.993862
vt 2.248639 0.993861
vt 1.403804 0.215472
vt 1.347639 0.996461
vt 1.305992 0.215472
vt 0.501155 0.214996
vt 0.444988 0.996002
vt 0.403341 0.214996
vt 2.598881 0.213736
vt 2.655045 0.994751
vt 2.640529 0.994751
vt 1.791622 0.214993
vt 1.735456 0.996000
vt 1.693808 0.214993
vt 0.906929 0.214999
vt 0.850763 0.995988
vt 0.809117 0.214999
vt 3.099398 0.206777
vt 3.043233 0.987766
vt 3.001587 0.206777
vt 3.201077 0.206089
vt 3.144910 0.987103
vt 3.103262 0.206089
vt 2.198063 0.211773
vt 2.141897 0.992770
vt 2.100250 0.211773
vt 1.306930 0.215516
vt 1.250765 0.996505
vt 1.209119 0.215516
vt 0.356924 0.996006
vt 0.342406 0.996006
vt 2.597484 0.211767
vt 2.541317 0.992782
vt 2.499670 0.211767
vt 1.697303 0.216951
vt 1.641138 0.997941
vt 1.599492 0.216951
vt 0.709276 0.215510
vt 0.765442 0.996517
vt 0.750924 0.996516
vt 2.456273 0.999852
vt 2.565795 0.703860
vt 2.554086 0.999852
vt 1.348740 0.999618
vt 1.458262 0.703625
vt 1.446554 0.999617
vt 0.262014 1.000567
vt 0.371536 0.704575
vt 0.359827 1.000567
vt 3.097170 1.003630
vt 3.206692 0.707638
vt 3.194983 1.003630
vt 1.839651 1.003046
vt 1.949173 0.707053
vt 1.937464 1.003046
vt 0.835663 1.003632
vt 0.726141 0.707639
vt 0.847372 0.707639
vt 3.703502 1.004107
vt 3.593980 0.708115
vt 3.715211 0.708115
vt 2.330600 0.998672
vt 2.440122 0.702680
vt 2.428413 0.998672
vt 1.222435 0.999617
vt 1.331957 0.703625
vt 1.320248 0.999617
vt 0.231347 1.002324
vt 0.121825 0.706332
vt 0.243056 0.706332
vt 3.063732 0.999853
vt 2.954211 0.703861
vt 3.075442 0.703861
vt 1.720442 1.002685
vt 1.829965 0.706693
vt 1.818256 1.002685
vt 0.626620 1.001151
vt 0.736142 0.705159
vt 0.724433 1.001151
vt 3.478920 1.006143
vt 3.588442 0.710151
vt 3.576733 1.006143
vt 2.199744 0.999864
vt 2.309266 0.703871
vt 2.297557 0.999864
vt 1.102456 0.999619
vt 1.211978 0.703627
vt 1.200269 0.999619
vt 0.012783 0.999116
vt 0.122305 0.703124
vt 0.110596 0.999116
vt 2.942182 1.003046
vt 2.832660 0.707053
vt 2.953892 0.707053
vt 1.598427 1.003048
vt 1.707949 0.707056
vt 1.696240 1.003049
vt 0.605378 1.003995
vt 0.495856 0.708003
vt 0.617087 0.708003
vt 3.351971 1.003089
vt 3.461493 0.707097
vt 3.449785 1.003089
vt 2.081466 0.999827
vt 2.190988 0.703835
vt 2.179280 0.999827
vt 1.081602 0.999257
vt 0.972080 0.703265
vt 1.093311 0.703265
vt 3.851701 1.004304
vt 3.961223 0.708312
vt 3.949514 1.004304
vt 2.584127 1.003046
vt 2.693650 0.707053
vt 2.681941 1.003046
vt 2.709896 0.999257
vt 2.819417 0.703265
vt 2.807709 0.999257
vt 1.481944 1.003047
vt 1.591466 0.707055
vt 1.579757 1.003047
vt 0.381068 0.999983
vt 0.490591 0.703990
vt 0.478882 0.999983
vt 3.226209 1.007340
vt 3.335731 0.711348
vt 3.324023 1.007340
vt 2.060570 0.999374
vt 1.951048 0.703382
vt 2.072279 0.703382
vt 0.857829 1.003630
vt 0.967351 0.707638
vt 0.955642 1.003630
vt 3.821926 1.004019
vt 3.712404 0.708027
vt 3.833635 0.708027
vt 0.359672 0.565922
vt 0.354110 0.622396
vt 0.310243 0.658397
vt 2.886083 0.701189
vt 2.788269 0.999410
vt 2.788269 0.693938
vt 3.090383 0.677726
vt 3.188197 1.000791
vt 3.090383 1.000791
vt 2.781383 0.695607
vt 2.683570 1.001080
vt 2.683570 0.668605
vt 2.987944 0.691462
vt 3.085757 0.998980
vt 2.987944 0.998980
vt 2.682697 0.667130
vt 2.584884 0.999605
vt 2.584884 0.353238
vt 2.889583 0.698737
vt 2.987396 0.996958
vt 2.889583 0.996958
vt 2.182978 0.996520
vt 2.081682 0.996519
vt 1.976515 0.996519
vt 1.877709 0.998854
vt 1.776236 1.000792
vt 1.677529 0.998855
vt 1.578275 0.998487
vt 1.475938 0.996854
vt 1.380110 0.998855
vt 1.379438 0.002537
vt 1.184828 1.000456
vt 1.182234 0.000904
vt 0.985415 1.000484
vt 0.886636 0.999839
vt 0.885944 0.005188
vt 0.788208 0.003049
vt 0.593220 0.998487
vt 0.492742 1.000967
vt 0.393111 0.998487
vt 0.292734 0.998855
vt 0.193861 0.998855
vt 0.097986 0.998855
vt -0.005434 0.002358
vt 0.092414 0.002358
vt 2.583081 0.002537
vt 2.583081 1.000458
vt 2.956362 0.987816
vt 2.381926 0.998855
vt 2.284753 0.996521
vt 0.351385 0.020879
vt 0.447294 0.001802
vt 0.545083 0.001802
vt 0.640993 0.020879
vt 0.731338 0.058302
vt 0.812646 0.112630
vt 0.881793 0.181777
vt 0.936122 0.263084
vt 0.992622 0.449339
vt 0.992623 0.547127
vt 0.973545 0.643037
vt 0.936123 0.733382
vt 0.881795 0.814691
vt 0.812647 0.883839
vt 0.731339 0.938167
vt 0.545083 0.994668
vt 0.447293 0.994668
vt 0.351383 0.975590
vt 0.261037 0.938167
vt 0.179729 0.883839
vt 0.110582 0.814691
vt 0.056253 0.733382
vt -0.000246 0.547127
vt -0.000246 0.449339
vt 0.018832 0.353429
vt 0.056255 0.263085
vt 0.110583 0.181776
vt 0.179731 0.112629
vt 0.261040 0.058301
vt 2.056730 0.993640
vt 1.164643 0.997940
vt 0.259196 0.995988
vt 2.455765 0.992782
vt 1.555992 0.995988
vt 0.704043 0.215466
vt 2.857577 0.988901
vt 1.955496 0.993652
vt 1.106443 0.216951
vt 0.158139 0.995257
vt 2.359966 0.994758
vt 1.500113 0.216951
vt 0.600918 0.214993
vt 2.758791 0.987821
vt 1.853745 0.993657
vt 1.006600 0.216952
vt 0.059354 0.997226
vt 2.304806 0.212855
vt 1.362162 0.996461
vt 0.459507 0.996002
vt 2.696696 0.213736
vt 1.749974 0.996000
vt 0.865286 0.995988
vt 3.057756 0.987765
vt 3.159425 0.987103
vt 2.156418 0.992770
vt 1.265288 0.996505
vt 0.398573 0.214999
vt 2.555833 0.992782
vt 1.655661 0.997941
vt 0.807090 0.215510
vt 2.444564 0.703860
vt 1.337031 0.703625
vt 0.250305 0.704575
vt 3.085461 0.707638
vt 1.827942 0.707053
vt 0.737850 1.003632
vt 3.605689 1.004107
vt 2.318891 0.702680
vt 1.210726 0.703625
vt 0.133533 1.002324
vt 2.965919 0.999853
vt 1.708733 0.706693
vt 0.614911 0.705159
vt 3.467211 0.710151
vt 2.188035 0.703871
vt 1.090747 0.703627
vt 0.001074 0.703124
vt 2.844369 1.003046
vt 1.586718 0.707056
vt 0.507565 1.003995
vt 3.340262 0.707097
vt 2.069757 0.703835
vt 0.983789 0.999257
vt 3.839992 0.708312
vt 2.572418 0.707053
vt 2.698188 0.703265
vt 1.470235 0.707055
vt 0.369360 0.703991
vt 3.214500 0.711348
vt 1.962757 0.999374
vt 0.846120 0.707638
vt 3.724112 1.004019
vt 0.295988 0.661232
vt 0.253769 0.652834
vt 0.281453 0.661232
vt 0.267198 0.658397
vt 0.241684 0.644759
vt 0.231406 0.634482
vt 0.223331 0.622396
vt 0.217769 0.608968
vt 0.214934 0.594713
vt 0.214934 0.580178
vt 0.217769 0.565922
vt 0.223331 0.552494
vt 0.231406 0.540409
vt 0.241684 0.530131
vt 0.253769 0.522056
vt 0.267198 0.516494
vt 0.281453 0.513659
vt 0.323672 0.522056
vt 0.295988 0.513659
vt 0.310244 0.516494
vt 0.335757 0.530131
vt 0.346035 0.540409
vt 0.354110 0.552494
vt 0.362508 0.580178
vt 0.362508 0.594713
vt 0.359672 0.608968
vt 0.346035 0.634482
vt 0.335757 0.644759
vt 0.323672 0.652835
vt 2.886083 0.999410
vt 3.188197 0.395158
vt 2.781383 1.001080
vt 3.085757 0.675915
vt 2.682697 0.999605
vt 2.987396 0.689440
vn 0.0980 0.0000 -0.9952
vn 0.2903 0.0000 -0.9569
vn 0.4714 0.0000 -0.8819
vn 0.6344 0.0000 -0.7730
vn 0.7730 0.0000 -0.6344
vn 0.8819 0.0000 -0.4714
vn 0.9569 0.0000 -0.2903
vn 0.9952 0.0000 -0.0980
vn 0.9952 0.0000 0.0980
vn 0.9569 0.0000 0.2903
vn 0.8819 0.0000 0.4714
vn 0.7730 0.0000 0.6344
vn 0.6344 0.0000 0.7730
vn 0.4714 0.0000 0.8819
vn 0.2903 0.0000 0.9569
vn 0.0980 0.0000 0.9952
vn -0.0980 0.0000 0.9952
vn -0.2903 0.0000 0.9569
vn -0.4714 0.0000 0.8819
vn -0.6344 0.0000 0.7730
vn -0.7730 0.0000 0.6344
vn -0.8819 0.0000 0.4714
vn -0.9569 0.0000 0.2903
vn -0.4714 0.0000 -0.8819
vn 0.1944 0.7426 -0.6409
vn -0.2903 0.0000 -0.9569
vn -0.0980 0.0000 -0.9952
vn 0.0000 -1.0000 -0.0000
vn 0.5907 0.7426 0.3157
vn -0.4249 0.7426 0.5177
vn -0.4249 0.7426 -0.5177
vn 0.6409 0.7426 -0.1944
vn 0.0656 0.7426 0.6665
vn -0.6665 0.7426 -0.0656
vn 0.3157 0.7426 -0.5907
vn 0.5177 0.7426 0.4249
vn -0.5177 0.7426 0.4249
vn -0.3157 0.7426 -0.5907
vn 0.6665 0.7426 -0.0656
vn -0.0656 0.7426 0.6665
vn -0.6409 0.7426 -0.1944
vn 0.4249 0.7426 -0.5177
vn 0.4249 0.7426 0.5177
vn -0.5907 0.7426 0.3157
vn -0.1944 0.7426 -0.6409
vn 0.6665 0.7426 0.0656
vn -0.1944 0.7426 0.6409
vn -0.5907 0.7426 -0.3157
vn 0.5177 0.7426 -0.4249
vn 0.3157 0.7426 0.5907
vn -0.6409 0.7426 0.1944
vn 0.0656 0.7426 -0.6665
vn -0.0656 0.7426 -0.6665
vn 0.6409 0.7426 0.1944
vn -0.3157 0.7426 0.5907
vn -0.5177 0.7426 -0.4249
vn 0.5907 0.7426 -0.3157
vn 0.1944 0.7426 0.6409
vn -0.6665 0.7426 0.0656
vn 0.2317 0.6026 -0.7637
vn 0.7038 0.6026 0.3762
vn -0.5063 0.6026 0.6169
vn -0.5063 0.6026 -0.6169
vn 0.7637 0.6026 -0.2317
vn 0.0782 0.6026 0.7942
vn -0.7942 0.6026 -0.0782
vn 0.3762 0.6026 -0.7038
vn 0.6169 0.6026 0.5063
vn -0.6169 0.6026 0.5063
vn -0.3762 0.6026 -0.7038
vn 0.7942 0.6026 -0.0782
vn -0.0782 0.6026 0.7942
vn -0.7637 0.6026 -0.2317
vn 0.5063 0.6026 -0.6169
vn 0.5063 0.6026 0.6169
vn -0.7038 0.6026 0.3762
vn -0.2317 0.6026 -0.7637
vn 0.7942 0.6026 0.0782
vn -0.2317 0.6026 0.7637
vn -0.7038 0.6026 -0.3762
vn 0.6169 0.6026 -0.5063
vn 0.3762 0.6026 0.7038
vn -0.7637 0.6026 0.2317
vn 0.0782 0.6026 -0.7942
vn -0.0782 0.6026 -0.7942
vn 0.7637 0.6026 0.2317
vn -0.3762 0.6026 0.7038
vn -0.6169 0.6026 -0.5063
vn 0.7038 0.6026 -0.3762
vn 0.2317 0.6026 0.7637
vn -0.7942 0.6026 0.0782
vn 0.0000 1.0000 0.0000
vn -0.8819 0.0000 -0.4714
vn -0.9952 0.0000 0.0980
vn -0.7730 0.0000 -0.6344
vn -0.9952 0.0000 -0.0980
vn -0.6344 0.0000 -0.7730
vn -0.9569 0.0000 -0.2903
vn 0.0000 1.0000 -0.0001
vn 0.0000 1.0000 0.0001
s off
f 2/1/1 3/2/1 1/3/1
f 4/4/2 5/5/2 3/6/2
f 6/7/3 7/8/3 5/9/3
f 8/10/4 9/11/4 7/12/4
f 10/13/5 11/14/5 9/15/5
f 12/16/6 13/17/6 11/18/6
f 14/19/7 15/20/7 13/21/7
f 16/22/8 17/23/8 15/24/8
f 18/25/9 19/26/9 17/27/9
f 20/28/10 21/29/10 19/30/10
f 22/31/11 23/32/11 21/33/11
f 24/34/12 25/35/12 23/36/12
f 26/37/13 27/38/13 25/39/13
f 28/40/14 29/41/14 27/42/14
f 30/43/15 31/44/15 29/45/15
f 32/46/16 33/47/16 31/48/16
f 34/49/17 35/50/17 33/51/17
f 36/52/18 37/53/18 35/54/18
f 38/55/19 39/56/19 37/57/19
f 40/58/20 41/59/20 39/60/20
f 42/61/21 43/62/21 41/63/21
f 44/64/22 45/65/22 43/66/22
f 46/67/23 48/68/23 135/69/23
f 134/70/24 62/71/24 61/72/24
f 4/73/25 67/74/25 6/75/25
f 62/76/26 63/77/26 61/78/26
f 64/79/27 1/80/27 63/81/27
f 15/82/28 31/83/28 47/84/28
f 22/85/29 76/86/29 24/87/29
f 40/88/30 85/89/30 42/90/30
f 58/91/31 94/92/31 60/93/31
f 14/94/32 72/95/32 16/96/32
f 32/97/33 81/98/33 34/99/33
f 52/100/34 89/101/34 90/102/34
f 6/103/35 68/104/35 8/105/35
f 24/106/36 77/107/36 26/108/36
f 44/109/37 85/110/37 86/111/37
f 60/112/38 95/113/38 62/114/38
f 16/115/39 73/116/39 18/117/39
f 36/118/40 81/119/40 82/120/40
f 54/121/41 90/122/41 91/123/41
f 8/124/42 69/125/42 10/126/42
f 26/127/43 78/128/43 28/129/43
f 46/130/44 86/131/44 87/132/44
f 62/133/45 96/134/45 64/135/45
f 20/136/46 73/137/46 74/138/46
f 36/139/47 83/140/47 38/141/47
f 54/142/48 92/143/48 56/144/48
f 12/145/49 69/146/49 70/147/49
f 28/148/50 79/149/50 30/150/50
f 46/151/51 88/152/51 48/153/51
f 2/154/52 66/155/52 4/156/52
f 64/157/53 65/158/53 2/159/53
f 20/160/54 75/161/54 22/162/54
f 38/163/55 84/164/55 40/165/55
f 58/91/56 92/166/56 93/167/56
f 12/168/57 71/169/57 14/170/57
f 30/171/58 80/172/58 32/173/58
f 50/174/59 88/175/59 89/176/59
f 6/177/60 98/178/60 4/179/60
f 24/180/61 107/181/61 22/182/61
f 42/183/62 116/184/62 40/185/62
f 60/186/63 125/187/63 58/188/63
f 16/189/64 103/190/64 14/191/64
f 32/192/65 113/193/65 112/194/65
f 50/195/66 122/196/66 121/197/66
f 8/198/67 99/199/67 6/200/67
f 26/201/68 108/202/68 24/203/68
f 42/204/69 118/205/69 117/206/69
f 60/207/70 127/208/70 126/209/70
f 18/210/71 104/211/71 16/212/71
f 36/213/72 113/214/72 34/215/72
f 54/216/73 122/217/73 52/218/73
f 10/219/74 100/220/74 8/221/74
f 28/222/75 109/223/75 26/224/75
f 46/225/76 118/226/76 44/227/76
f 62/228/77 128/229/77 127/230/77
f 20/231/78 105/232/78 18/233/78
f 36/234/79 115/235/79 114/236/79
f 56/237/80 123/238/80 54/239/80
f 12/240/81 101/241/81 10/242/81
f 28/243/82 111/244/82 110/245/82
f 48/246/83 119/247/83 46/248/83
f 4/249/84 97/250/84 2/251/84
f 2/252/85 128/253/85 64/254/85
f 22/255/86 106/256/86 20/257/86
f 40/258/87 115/259/87 38/260/87
f 58/261/88 124/262/88 56/263/88
f 12/264/89 103/265/89 102/266/89
f 32/267/90 111/268/90 30/269/90
f 48/270/91 121/271/91 120/272/91
f 75/273/92 71/274/92 67/275/92
f 131/276/93 56/277/93 132/278/93
f 129/279/94 48/280/94 50/281/94
f 132/282/95 58/283/95 133/284/95
f 130/285/96 50/286/96 52/287/96
f 133/288/97 60/289/97 134/290/97
f 131/291/98 52/292/98 54/293/98
f 2/1/1 4/294/1 3/2/1
f 4/4/2 6/295/2 5/5/2
f 6/7/3 8/296/3 7/8/3
f 8/10/4 10/297/4 9/11/4
f 10/13/5 12/298/5 11/14/5
f 12/16/6 14/299/6 13/17/6
f 14/19/7 16/300/7 15/20/7
f 16/22/8 18/301/8 17/23/8
f 18/25/9 20/302/9 19/26/9
f 20/28/10 22/303/10 21/29/10
f 22/31/11 24/304/11 23/32/11
f 24/34/12 26/305/12 25/35/12
f 26/37/13 28/306/13 27/38/13
f 28/40/14 30/307/14 29/41/14
f 30/43/15 32/308/15 31/44/15
f 32/46/16 34/309/16 33/47/16
f 34/49/17 36/310/17 35/50/17
f 36/52/18 38/311/18 37/53/18
f 38/55/19 40/312/19 39/56/19
f 40/58/20 42/313/20 41/59/20
f 42/61/21 44/314/21 43/62/21
f 44/64/22 46/315/22 45/65/22
f 47/316/23 45/317/23 135/69/23
f 45/317/23 46/67/23 135/69/23
f 61/72/24 59/318/24 134/70/24
f 134/70/24 60/319/24 62/71/24
f 4/73/25 66/320/25 67/74/25
f 62/76/26 64/321/26 63/77/26
f 64/79/27 2/322/27 1/80/27
f 63/323/28 1/324/28 3/325/28
f 3/325/28 5/326/28 7/327/28
f 7/327/28 9/328/28 11/329/28
f 11/329/28 13/330/28 7/327/28
f 13/330/28 15/82/28 7/327/28
f 15/82/28 17/331/28 19/332/28
f 19/332/28 21/333/28 15/82/28
f 21/333/28 23/334/28 15/82/28
f 23/334/28 25/335/28 31/83/28
f 25/335/28 27/336/28 31/83/28
f 27/336/28 29/337/28 31/83/28
f 31/83/28 33/338/28 35/339/28
f 35/339/28 37/340/28 39/341/28
f 39/341/28 41/342/28 43/343/28
f 43/343/28 45/344/28 47/84/28
f 47/84/28 49/345/28 51/346/28
f 51/346/28 53/347/28 55/348/28
f 55/348/28 57/349/28 63/323/28
f 57/349/28 59/350/28 63/323/28
f 59/350/28 61/351/28 63/323/28
f 63/323/28 3/325/28 7/327/28
f 31/83/28 35/339/28 47/84/28
f 35/339/28 39/341/28 47/84/28
f 39/341/28 43/343/28 47/84/28
f 47/84/28 51/346/28 63/323/28
f 51/346/28 55/348/28 63/323/28
f 63/323/28 7/327/28 15/82/28
f 15/82/28 23/334/28 31/83/28
f 63/323/28 15/82/28 47/84/28
f 22/85/29 75/352/29 76/86/29
f 40/88/30 84/353/30 85/89/30
f 58/91/31 93/354/31 94/92/31
f 14/94/32 71/355/32 72/95/32
f 32/97/33 80/356/33 81/98/33
f 52/100/34 50/357/34 89/101/34
f 6/103/35 67/358/35 68/104/35
f 24/106/36 76/359/36 77/107/36
f 44/109/37 42/360/37 85/110/37
f 60/112/38 94/361/38 95/113/38
f 16/115/39 72/362/39 73/116/39
f 36/118/40 34/363/40 81/119/40
f 54/121/41 52/364/41 90/122/41
f 8/124/42 68/365/42 69/125/42
f 26/127/43 77/366/43 78/128/43
f 46/130/44 44/367/44 86/131/44
f 62/133/45 95/368/45 96/134/45
f 20/136/46 18/369/46 73/137/46
f 36/139/47 82/370/47 83/140/47
f 54/142/48 91/371/48 92/143/48
f 12/145/49 10/372/49 69/146/49
f 28/148/50 78/373/50 79/149/50
f 46/151/51 87/374/51 88/152/51
f 2/154/52 65/375/52 66/155/52
f 64/157/53 96/376/53 65/158/53
f 20/160/54 74/377/54 75/161/54
f 38/163/55 83/378/55 84/164/55
f 58/91/56 56/379/56 92/166/56
f 12/168/57 70/380/57 71/169/57
f 30/171/58 79/381/58 80/172/58
f 50/174/59 48/382/59 88/175/59
f 6/177/60 99/383/60 98/178/60
f 24/180/61 108/384/61 107/181/61
f 42/183/62 117/385/62 116/184/62
f 60/186/63 126/386/63 125/187/63
f 16/189/64 104/387/64 103/190/64
f 32/192/65 34/388/65 113/193/65
f 50/195/66 52/389/66 122/196/66
f 8/198/67 100/390/67 99/199/67
f 26/201/68 109/391/68 108/202/68
f 42/204/69 44/392/69 118/205/69
f 60/207/70 62/393/70 127/208/70
f 18/210/71 105/394/71 104/211/71
f 36/213/72 114/395/72 113/214/72
f 54/216/73 123/396/73 122/217/73
f 10/219/74 101/397/74 100/220/74
f 28/222/75 110/398/75 109/223/75
f 46/225/76 119/399/76 118/226/76
f 62/228/77 64/400/77 128/229/77
f 20/231/78 106/401/78 105/232/78
f 36/234/79 38/402/79 115/235/79
f 56/237/80 124/403/80 123/238/80
f 12/240/81 102/404/81 101/241/81
f 28/243/82 30/405/82 111/244/82
f 48/246/83 120/406/83 119/247/83
f 4/249/84 98/407/84 97/250/84
f 2/252/85 97/408/85 128/253/85
f 22/255/86 107/409/86 106/256/86
f 40/258/87 116/410/87 115/259/87
f 58/261/88 125/411/88 124/262/88
f 12/264/89 14/412/89 103/265/89
f 32/267/90 112/413/90 111/268/90
f 48/270/91 50/414/91 121/271/91
f 67/275/99 66/415/99 95/416/99
f 66/415/92 65/417/92 95/416/92
f 65/417/92 96/418/92 95/416/92
f 95/416/92 94/419/92 93/420/92
f 93/420/92 92/421/92 91/422/92
f 91/422/92 90/423/92 89/424/92
f 89/424/92 88/425/92 91/422/92
f 88/425/92 87/426/92 91/422/92
f 87/426/92 86/427/92 85/428/92
f 85/428/92 84/429/92 87/426/92
f 84/429/92 83/430/92 87/426/92
f 83/430/92 82/431/92 79/432/92
f 82/431/92 81/433/92 79/432/92
f 81/433/92 80/434/92 79/432/92
f 79/432/92 78/435/92 77/436/92
f 77/436/92 76/437/92 75/273/92
f 75/273/92 74/438/92 71/274/92
f 74/438/92 73/439/92 71/274/92
f 73/439/92 72/440/92 71/274/92
f 71/274/92 70/441/92 69/442/92
f 69/442/100 68/443/100 67/275/100
f 95/416/92 93/420/92 67/275/92
f 93/420/92 91/422/92 67/275/92
f 79/432/92 77/436/92 75/273/92
f 71/274/92 69/442/92 67/275/92
f 91/422/92 87/426/92 67/275/92
f 87/426/92 83/430/92 67/275/92
f 83/430/92 79/432/92 67/275/92
f 79/432/92 75/273/92 67/275/92
f 131/276/93 54/444/93 56/277/93
f 129/279/94 135/445/94 48/280/94
f 132/282/95 56/446/95 58/283/95
f 130/285/96 129/447/96 50/286/96
f 133/288/97 58/448/97 60/289/97
f 131/291/98 130/449/98 52/292/98
